<mxfile host="app.diagrams.net" modified="2023-04-02T23:53:08.555Z" agent="Mozilla/5.0 (Windows NT 10.0; Win64; x64) AppleWebKit/537.36 (KHTML, like Gecko) Chrome/111.0.0.0 Safari/537.36" etag="3nWK8_CunBQ4yLz8mbOV" version="21.1.2" type="device">
  <diagram id="t3pYFUkL7nPWXu85cPEp" name="Page-1">
    <mxGraphModel dx="882" dy="596" grid="1" gridSize="10" guides="1" tooltips="1" connect="1" arrows="1" fold="1" page="1" pageScale="1" pageWidth="850" pageHeight="1100" math="0" shadow="0">
      <root>
        <mxCell id="0" />
        <mxCell id="1" parent="0" />
        <mxCell id="61ijb83RFL0h6t_siy47-1" style="edgeStyle=orthogonalEdgeStyle;rounded=0;orthogonalLoop=1;jettySize=auto;html=1;exitX=1;exitY=0.5;exitDx=0;exitDy=0;entryX=0;entryY=0.5;entryDx=0;entryDy=0;" edge="1" parent="1" source="AUPTG6gYR4oV3gEJlKsr-1" target="AUPTG6gYR4oV3gEJlKsr-3">
          <mxGeometry relative="1" as="geometry" />
        </mxCell>
        <mxCell id="AUPTG6gYR4oV3gEJlKsr-1" value="Training data generation" style="rounded=1;whiteSpace=wrap;html=1;" parent="1" vertex="1">
          <mxGeometry x="80" y="160" width="120" height="60" as="geometry" />
        </mxCell>
        <mxCell id="61ijb83RFL0h6t_siy47-4" style="edgeStyle=orthogonalEdgeStyle;rounded=0;orthogonalLoop=1;jettySize=auto;html=1;exitX=1;exitY=0.5;exitDx=0;exitDy=0;entryX=0;entryY=0.5;entryDx=0;entryDy=0;" edge="1" parent="1" source="AUPTG6gYR4oV3gEJlKsr-3" target="61ijb83RFL0h6t_siy47-3">
          <mxGeometry relative="1" as="geometry" />
        </mxCell>
        <mxCell id="AUPTG6gYR4oV3gEJlKsr-3" value="GAN" style="rounded=1;whiteSpace=wrap;html=1;" parent="1" vertex="1">
          <mxGeometry x="280" y="160" width="120" height="60" as="geometry" />
        </mxCell>
        <mxCell id="61ijb83RFL0h6t_siy47-12" style="edgeStyle=orthogonalEdgeStyle;rounded=0;orthogonalLoop=1;jettySize=auto;html=1;exitX=1;exitY=0.5;exitDx=0;exitDy=0;" edge="1" parent="1" source="AUPTG6gYR4oV3gEJlKsr-6">
          <mxGeometry relative="1" as="geometry">
            <mxPoint x="660" y="310" as="targetPoint" />
          </mxGeometry>
        </mxCell>
        <mxCell id="AUPTG6gYR4oV3gEJlKsr-6" value="Segmentor model" style="rounded=1;whiteSpace=wrap;html=1;" parent="1" vertex="1">
          <mxGeometry x="480" y="280" width="120" height="60" as="geometry" />
        </mxCell>
        <mxCell id="61ijb83RFL0h6t_siy47-2" value="Training data" style="text;html=1;strokeColor=none;fillColor=none;align=center;verticalAlign=middle;whiteSpace=wrap;rounded=0;" vertex="1" parent="1">
          <mxGeometry x="200" y="130" width="80" height="30" as="geometry" />
        </mxCell>
        <mxCell id="61ijb83RFL0h6t_siy47-3" value="Transfer learning" style="rounded=1;whiteSpace=wrap;html=1;" vertex="1" parent="1">
          <mxGeometry x="480" y="160" width="120" height="60" as="geometry" />
        </mxCell>
        <mxCell id="61ijb83RFL0h6t_siy47-5" value="Enhanced training data" style="text;html=1;strokeColor=none;fillColor=none;align=center;verticalAlign=middle;whiteSpace=wrap;rounded=0;" vertex="1" parent="1">
          <mxGeometry x="370" y="130" width="130" height="30" as="geometry" />
        </mxCell>
        <mxCell id="61ijb83RFL0h6t_siy47-7" style="edgeStyle=orthogonalEdgeStyle;rounded=0;orthogonalLoop=1;jettySize=auto;html=1;exitX=0.5;exitY=1;exitDx=0;exitDy=0;" edge="1" parent="1" source="61ijb83RFL0h6t_siy47-6" target="61ijb83RFL0h6t_siy47-3">
          <mxGeometry relative="1" as="geometry" />
        </mxCell>
        <mxCell id="61ijb83RFL0h6t_siy47-6" value="Pretrained models (FCN / U-net / Mask R-CNN)" style="rounded=1;whiteSpace=wrap;html=1;" vertex="1" parent="1">
          <mxGeometry x="480" y="40" width="120" height="60" as="geometry" />
        </mxCell>
        <mxCell id="61ijb83RFL0h6t_siy47-9" style="edgeStyle=orthogonalEdgeStyle;rounded=0;orthogonalLoop=1;jettySize=auto;html=1;exitX=1;exitY=0.5;exitDx=0;exitDy=0;entryX=0;entryY=0.5;entryDx=0;entryDy=0;" edge="1" parent="1" source="61ijb83RFL0h6t_siy47-8" target="AUPTG6gYR4oV3gEJlKsr-6">
          <mxGeometry relative="1" as="geometry" />
        </mxCell>
        <mxCell id="61ijb83RFL0h6t_siy47-8" value="Car on the road" style="rounded=1;whiteSpace=wrap;html=1;" vertex="1" parent="1">
          <mxGeometry x="80" y="280" width="120" height="60" as="geometry" />
        </mxCell>
        <mxCell id="61ijb83RFL0h6t_siy47-10" value="Images from vehicle&#39;s camera" style="text;html=1;strokeColor=none;fillColor=none;align=center;verticalAlign=middle;whiteSpace=wrap;rounded=0;" vertex="1" parent="1">
          <mxGeometry x="235" y="280" width="210" height="30" as="geometry" />
        </mxCell>
        <mxCell id="61ijb83RFL0h6t_siy47-13" value="Segmented images" style="text;html=1;strokeColor=none;fillColor=none;align=center;verticalAlign=middle;whiteSpace=wrap;rounded=0;" vertex="1" parent="1">
          <mxGeometry x="610" y="280" width="120" height="30" as="geometry" />
        </mxCell>
      </root>
    </mxGraphModel>
  </diagram>
</mxfile>
